<svg width="174" height="28" viewBox="0 0 174 28" fill="none" xmlns="http://www.w3.org/2000/svg">
<path d="M86.9966 7C86.3836 7 85.9749 7.46009 85.9749 8.13928V16.0923L86.0362 17.6771L84.7557 16.085L83.2028 14.4199C83.0189 14.2227 82.7805 14.0767 82.474 14.0767C81.9223 14.0767 81.5 14.5076 81.5 15.1356C81.5 15.4204 81.609 15.6907 81.8201 15.9244L86.2406 20.6714C86.4313 20.8758 86.7173 21 86.9966 21C87.2759 21 87.5619 20.8758 87.7526 20.6714L92.1799 15.9244C92.391 15.6907 92.5 15.4204 92.5 15.1356C92.5 14.5076 92.0777 14.0767 91.526 14.0767C91.2195 14.0767 90.9811 14.2227 90.7904 14.4199L89.2375 16.085L87.957 17.6771L88.0251 16.0923V8.13928C88.0251 7.46009 87.6096 7 86.9966 7Z" fill="#8E8E93"/>
</svg>
